<svg width="572.8" height="187.5" xmlns="http://www.w3.org/2000/svg" version="1.1" xml:space="preserve">
 <g>
  <title>Layer 1</title>
  <path class="st0" d="m77.5,73l0.1,5.4c-2.2,-0.8 -4.2,-2.6 -6.5,-5.4l3.8,6.6l-0.1,11.2l8.6,8.2l0.2,-22.5l-6.1,-3.5zm0.7,17.8c-0.6,0 -1,-0.9 -1,-2.1c0,-1.1 0.5,-2.1 1,-2.1s1,0.9 1,2.1c0.1,1.1 -0.4,2.1 -1,2.1zm1.2,-10.3c-0.6,0 -1.1,-0.9 -1.1,-2.1c0,-1.1 0.5,-2.1 1.1,-2.1s1,0.9 1,2.1s-0.4,2.1 -1,2.1zm2.1,6c-0.6,0 -1.1,-0.9 -1.1,-2.1s0.5,-2.1 1.1,-2.1s1,0.9 1,2.1s-0.4,2.1 -1,2.1zm2.8,-40.8l0,6.4l-2.6,0.5l2.6,1.8l0,9.7l-5.8,-3.1l-0.2,-9.1c-2.3,0.5 -5.3,2.3 -7.3,5.2c-0.4,-6.3 0,-12.5 1.3,-18.8l6,4l-3.2,5.8l4.9,-4.4l4.3,2zm23.2,27.6l0.1,5.1c3,-1 4.5,-3.7 6.6,-6.6l-3.9,7.6l0.1,11.2l-8.7,8.5l-0.1,-22.8l1.2,-0.5l1,5.2l0.8,-6.3l2.9,-1.4zm-0.5,17.3c0.6,0 1,-0.9 1,-2.1c0,-1.1 -0.5,-2.1 -1,-2.1s-1,0.9 -1,2.1c-0.1,1.2 0.4,2.1 1,2.1zm-1,-10.1c0.6,0 1.1,-0.9 1.1,-2.1c0,-1.1 -0.5,-2.1 -1.1,-2.1s-1,0.9 -1,2.1c-0.1,1.2 0.4,2.1 1,2.1zm-2.3,5.9c0.6,0 1.1,-0.9 1.1,-2.1s-0.5,-2.1 -1.1,-2.1s-1,0.9 -1,2.1s0.4,2.1 1,2.1zm9.2,-48.2c1.3,6.4 1.8,12.7 1.3,18.8c-1.6,-2.5 -4.8,-4.5 -7.3,-5.2l-0.6,8.9l-2,1.1l-1.7,-6.3l-0.5,7.2l-0.9,0.4l-0.6,-17.4l12.3,-7.5zm-59.2,15.2l1.6,1l0.2,19.5c0,0 -2.3,0 -2.4,-3.9l-0.6,-16c0,-0.6 0.7,-1 1.2,-0.6zm-0.1,-1.9c-0.5,-0.3 -0.5,-1.1 0,-1.4l5.3,-3.1l2.6,1.6l-6.3,4l-1.6,-1.1zm9.8,0l0.6,-7.5l1.9,1.2l-0.6,8.4l-1.1,-0.5c-0.5,-0.3 -0.9,-1 -0.8,-1.6zm4.9,-10.4l0,0c0.8,0.8 0.6,2.2 -0.4,2.8l-0.8,0.5l-2.5,-1.4l3.7,-1.9zm60.1,7.7c0.4,0.4 1.7,1 2.1,3.7l0.2,21.7c0,0.4 -0.1,0.7 -0.4,1l-1.8,2.1c-0.2,0.2 -0.5,0.1 -0.6,-0.2c-0.2,-8.8 -0.5,-17.6 -0.6,-23.4c0,-1.2 -0.5,-2.4 -1.4,-3.3c-2.9,-2.9 -6.1,-4.3 -9.8,-6.2c-0.9,-0.5 -0.8,-1.7 -1,-2.7l-0.1,-0.8c5.9,2.2 9,4.4 13.4,8.1zm-67.6,35.3l2.3,-0.9c0.5,-0.3 1.2,0.2 1.6,0.6l16.8,20.6l10,6.9c0.6,0.6 1.6,0.6 2.2,-0.1l10.7,-7.7l18,-20.2c0.3,-0.3 0.7,-0.4 1,-0.3l1.9,0.1c0.8,0.2 1.1,1 0.7,1.7l-6,16.2c-0.3,0.5 -0.8,0.7 -1.3,0.7l-5.6,0.6c-0.8,-0.1 -1.5,0.3 -2,0.9l-17,15.4c-0.4,0.5 -1,0.9 -1.6,1l-6.4,1.4c-0.9,0.2 -1.9,0.1 -2.8,-0.3l-7,-4.2c-0.9,-0.4 -1.4,-1.5 -1.4,-2.4c-1.4,-10.5 -4.5,-17.2 -7.8,-21.5c-3.3,-4.2 -6.5,-7.1 -6.5,-7.1c-0.5,-0.4 -0.4,-1.1 0.2,-1.4zm-21,-29.8l2.6,-3l9.8,26.9c0.5,1.4 1.3,2.7 2.3,3.8c12.3,11.3 16.4,17.9 18.4,33c0.1,0.5 -0.2,0.9 -0.7,1l-2.5,0.5c-0.2,-1.6 -0.5,-3.4 -0.7,-5.3c-0.3,-2.8 -1,-5.6 -1.7,-7.6c-1.8,-3.9 -3.4,-5.9 -6.3,-9.2l-8.7,-9.9c-1.8,-2.1 -3.5,-4.5 -4.3,-7.2l-8.5,-20.7c-0.3,-0.8 -0.2,-1.6 0.3,-2.3zm61.5,97.8c0,0.1 -0.1,0.1 -0.1,0.2c-0.1,0 0,-0.1 0.1,-0.2zm53.3,-80l-1.7,-1.2c-1.3,-1 -2.8,-1.7 -4.3,-2.2l-0.6,-0.2l-0.5,-2.1c-0.3,-1.3 -1.2,-2.5 -2.4,-3l-10.5,-5c-0.5,-0.2 -1.1,0.1 -1.1,0.7l0.2,15.3c0,1.2 -0.4,2.5 -1.1,3.5l-4.1,7.7l-7.6,18.8c-0.3,0.4 -0.8,0.6 -1.2,0.6l-5.9,0.3c-0.6,-0.1 -1.2,0.2 -1.6,0.7l-16.4,14.7c-0.5,0.7 -1.2,1.2 -2,1.4l-7.4,1.8c-0.9,0.3 -1.8,0.7 -2.7,1.2l-24.7,12.9l5.8,-1.1c2.8,-0.3 0,1.5 0.1,3.5c3.7,-0.3 0.9,5.2 -4.3,7c0.4,0.1 3.2,0.7 2.2,1.1c1.3,0.5 2.6,0.4 3.8,-0.2c0.5,1 -0.8,2.8 -3.9,5.5c0.8,0.5 1.4,0.7 2,0.6c1.2,0.7 -1.1,3.4 -3.8,2.8c3.3,1.6 7.1,1.8 10.3,-0.2c3.4,-2.4 7.4,-4.8 10.6,-6.1c0.4,0.7 0.7,2.5 -0.1,3.2c1.2,1.2 2.9,0.2 3.7,2.4c-0.3,1.3 -2.4,2.4 -3.9,2.2c1.8,2 8.1,1.2 10.8,-1.7c-0.2,-2 0.7,-2.8 2.2,-4.4c2.2,-1.4 4.6,-2.7 8.1,-3c0.4,0.6 -0.9,1.4 -1.4,2.4c1,-1 9.6,-5 11.9,-4.5c1,1.9 -0.8,3.4 -6.3,6.5c8.7,-3.1 13.8,-5.7 16,-16c6.6,-14.3 13,-29.2 22.7,-35.8c0.5,3.5 -0.5,5.9 -2.2,7.5c2.1,0.6 7.7,-9.3 7.7,-9.3c-1.7,-0.3 -0.7,-9.5 2,-11.7c-0.2,-4.4 1.8,-6.6 2,-8.9c0.3,-3.3 -0.7,-5.7 -0.4,-7.7zm-66.2,77.5c-0.2,0 -0.7,-0.5 -0.9,-1.1l2.2,-0.9l-1.3,2zm6.3,-2.1l0.5,-0.5c0.2,-0.2 0.4,-0.3 0.7,-0.2l0.7,0.4l-1.9,0.3zm23.5,-9c-0.2,0.2 1.1,2.2 0.6,2.2c-1.5,0 -5.6,-0.8 -4.5,-1.8c1.1,-1.1 2.7,-2.4 3.4,-3.2c0.7,-0.8 1.9,1.1 2.5,1.9c0.6,0.6 -1.6,0.3 -2,0.9zm-45.7,-21l8.6,5.4c0.4,0.3 0.4,0.9 0,1.2l-15.9,8.5c-0.6,0.3 -1.6,0.4 -1.8,-0.2c-2.1,-4.5 -7.9,-0.5 -9.7,0.4c0,0 2.9,-4.7 4.7,-6.1c-0.2,-1 -0.8,-1.4 -1.7,-1.6c-0.2,-2.2 0.7,-4.8 1.8,-7.6c-0.8,0.3 -1.3,1 -2.9,1.6c1.1,-1 1.2,-2.1 2,-2.7c-1.3,-0.1 -1.9,0.2 -2.3,0.4c0,0 0.3,-0.7 1.2,-1.4c0.9,-1 0.3,-1.5 -1.6,-1.4c-6.2,0.7 -9.1,5.4 -9.1,5.4c-0.1,-1.1 0.6,-2.5 1.3,-3.6c0.9,-0.8 1.8,-4.2 -1,-1.7c-0.3,0 2.7,-5.8 5.3,-7.2c-0.8,-0.3 -1.8,0.1 -2.7,0.6l4.1,-5.8c-2.9,-0.5 -4.3,0 -4.2,0.4c0,0 -0.2,-1.1 0.1,-1.4c0,0 -2.3,-0.9 -4.5,2.4c0.6,-3.3 0.5,-3.5 3.5,-6.2l-2.9,-2.5c-1.4,0.1 -2.1,0.9 -3.8,3.8c-0.3,-2 0.2,-4.7 1.3,-6.7c-0.3,0 -1,-0.4 -3.5,1.4c1.3,-2.4 -4.4,-1.2 -6.1,1.7c0,0 -0.7,-2.2 0.8,-4.4c1.2,-1.7 2.7,-2.7 2.7,-2.7c0.1,-0.5 -0.8,-0.2 -2,0.2c0,0 1.1,-1.8 2,-2.4c-2.2,-2.5 -4.3,-5.8 -6.4,-9.5c-0.1,-0.2 -0.1,-0.4 0.1,-0.5l5.7,-4.3c0.2,-0.1 0.4,0 0.5,0.2c3.6,11.7 10.7,20.9 16.7,27.4c7.5,8 9.2,17.7 9,25.3c0,1.4 -0.1,2.8 -0.3,4c2.4,2.4 5.5,2.8 9.2,0.1l-0.5,-9.8m-7.1,-18.4c-4,-5.2 -7,-8.1 -11.2,-12.7c-2.2,-2.4 -4.9,-7.1 -6.1,-10.1l-4.1,-10.3l-4.5,3.2c2.6,7.9 7.7,17.1 13,23.6c5.3,5.3 8.8,8.8 10.7,15.2c1.8,6.1 2.4,12 1.9,18.4c2.1,1.4 3.7,1.4 5.8,0c0.1,-7 -0.8,-13.8 -2.3,-20.5c-0.5,-2.7 -1.6,-4.7 -3.2,-6.8zm2.7,26.8c-0.8,0 -1.5,-0.7 -1.5,-1.5s0.7,-1.5 1.5,-1.5c0.9,0 1.5,0.7 1.5,1.5s-0.6,1.5 -1.5,1.5zm12.5,-85.6l-5.7,-3.6l0.7,-3.7c4.4,-4.8 11,-6.2 19.2,-6.9c9.2,0.3 15.2,2.8 19,6.9l1,3.6l-10.5,6c-1.3,0.7 -2.7,1.3 -4.1,1.5l-5.7,1.2l-5.2,-1c-1.1,-0.2 -2.3,-0.6 -3.3,-1.1l-2.2,-1c-0.3,-0.2 -0.5,-0.6 -0.3,-0.9l3.6,-5.6l-5.6,4.6c-0.2,0.1 -0.6,0.2 -0.9,0zm13.2,62.6l-0.1,-56.2l-5.8,-1.4l0.1,6.1l2.1,2.3l-2.2,0.2l0,11.5l-8.5,-4.5l0,-7.4c-3.7,1.6 -6,2.8 -8.2,8.6c0.5,5.5 2.3,10.2 7.5,13.4l0,-4.9l8.5,4.5l0,24.9l6.6,2.9zm-16.9,-36l0,-4.6l12.4,6.3l0,4.5l-12.4,-6.2zm18.8,36l0,-56.3l6.2,-1.5l-0.2,20.2l8.3,-4.4l0.3,-8.2c3.7,1.6 5.3,3.3 7.5,9.2c-0.5,5.5 -1.5,10.2 -6.7,13.5l0,-4.9l-8.5,4.5l0,24.9l-6.9,3zm16.9,-35.9l0.1,-4.6l-12.1,6.1l0,4.5l12,-6z" fill="#FFFFFF" id="svg_1"/>
  <path class="st0" d="m245.5,67.9c-0.6,-3.8 -2.3,-7 -5.5,-9.5c-2.7,-2.1 -5.8,-3.1 -9.4,-4c4.3,-1.6 6.5,-4.5 7.3,-8.5c0.2,-1.3 0.2,-2.7 0.2,-4c-0.1,-6.4 -3.8,-10.7 -9.2,-12.5c-4,-1.3 -8.1,-1.3 -12.2,-1.3c-8.2,0 -16.5,0 -24.8,0c-2,0 -4.1,-0.3 -6.3,0.4c5.1,1.5 7.4,3.8 7.4,9.7c0,1.5 0,2.9 0.1,4.4c0,0.2 2.3,0.6 2.3,0.8s-2.3,0.3 -2.3,0.5c0.1,4 0.2,8 0.3,12.1c0.1,6.7 0,13.4 0.2,20.1c0.1,6.1 -1.7,11.5 -5.3,16.3c-1.8,2.4 -3.9,4.6 -5.9,6.9c0.1,0.1 0.2,0.1 0.2,0.2c0.4,-0.3 0.8,-0.6 1.1,-0.8c4,-2.8 8.1,-5.5 12.6,-7.5c2.9,-1.3 5.9,-2 9.2,-2c4.7,0.1 9.4,0 14.1,0c3.6,0 7.3,0.3 10.9,-0.1c6.8,-0.8 11.9,-4.7 14.2,-11.3c1.2,-3.2 1.3,-6.6 0.8,-9.9zm-42.4,-36c0.6,-0.1 1.3,-0.2 1.9,-0.2c3.9,0 7.9,0.1 11.8,0c5.3,-0.1 10.3,3.9 10.4,10.3c0,1 0.1,1.9 0,2.9c-0.9,5.7 -3.8,9.3 -10.5,9.8c-4.4,0.3 -8.8,0 -13.5,0l-0.1,-22.8l0,0zm25.6,51.6c-2.9,1.7 -6,2.6 -9.2,2.8c-5.4,0.2 -10.7,0.1 -16.1,0.1c-0.2,-0.7 -0.3,-3.3 -0.4,-6.8c0,-0.4 -2.7,-0.9 -2.7,-1.3s2.7,-0.6 2.7,-0.9c0,-0.2 0,-0.5 0,-0.7c0,-0.3 -1.9,-0.1 0,-1c-0.1,-6.7 0,-14.4 0.2,-17.4c6.2,0 12.2,-0.2 18.3,0.1c3.3,0.1 6.3,1.5 8.9,3.5c6.7,5.3 5.9,17 -1.7,21.6zm270.2,-38.7c11.6,15.2 22.8,29.8 34,44.4l18,0c-6.1,-1.9 -8,-4 -8.1,-9c-0.1,-4.8 -0.1,-9.5 -0.2,-14.3c0,-0.3 -6.4,-0.5 -6.4,-0.5s1,-0.4 2.3,-0.6c0.5,-0.1 0.1,-0.9 0.1,-0.9s4,0.1 4,-0.1c0,-6.2 -0.1,-12.3 -0.1,-18.5c0,-3.3 1.6,-5.6 4.8,-6.8c1,-0.4 1.9,-0.6 3.1,-1c-3.5,-0.5 -23.1,-0.4 -25.2,0.1c0.5,0.1 1,0.2 1.4,0.4c4.3,1.2 6.3,3.9 6.2,8.4c-0.2,10.6 -0.1,21.3 -0.1,31.9l0,3.4c-10.2,-13.4 -20.2,-26.4 -30.1,-39.4l-5.4,-0.4l1.8,-0.4l-0.5,-0.4l3,-0.3c-0.9,-1.2 -1.8,-2.3 -2.6,-3.4l-18.2,0c1.1,0.4 1.6,0.6 2.1,0.8c4.7,1.7 6.1,3.6 6.2,8.5c0,3.1 0.3,6.1 0.3,9.2c0.1,8.5 0.2,17.1 0.2,25.6c0,2.7 -1.3,4.8 -3.7,6c-1.1,0.6 -2.2,0.9 -3.4,1.4c2.9,0.6 21.6,0.5 23.5,-0.2c-0.6,-0.2 -1.2,-0.3 -1.7,-0.5c-3.2,-1.2 -4.9,-3.5 -5.3,-6.9c-0.1,-0.6 0,-1.1 0,-1.7l0,-34.8zm-205.1,37.3c-3.6,-4.9 -7.1,-10 -10.8,-15.2c1.7,-0.7 3.1,-1.2 4.3,-1.8c1,-0.5 2.8,-1.8 2.8,-1.8c-0.2,-1.5 -0.2,-3 0.1,-4.6c0.9,0.8 1.8,1.3 2.8,1.4c0,0 1.1,-2.2 1.4,-3.5c0.4,-1.9 0.4,-4 0.3,-6c-0.2,-5.8 -3.4,-9.3 -8.6,-11.3c-1.4,-0.5 -2.8,-0.9 -4.3,-1.2c-1.2,2.8 -0.6,-0.1 -0.9,-0.1c-1.3,-0.2 -2.5,-0.3 -3.8,-0.3c-7,-0.1 -13.9,-0.1 -20.9,-0.1l0,3.7c-0.5,-1.8 -1.5,-2.8 -2.7,-3.7l-5.5,0c-0.7,0 -1.3,0.1 -2.6,0.2c1,0.2 1.3,0.3 1.7,0.4c5.3,1.6 7,3.9 7,9.4c0,4.7 0.1,9.4 0.2,14.1c0,2.9 0.2,5.7 0.2,8.6c0,4.1 0,8.2 -0.2,12.3c-0.1,2.8 -1.8,4.5 -4.3,5.6c-0.8,0.3 -1.5,0.6 -2.3,0.9c0,0.1 0.1,0.2 0.1,0.3l16.3,0c0,-3.8 0,-7.4 0,-11s-0.1,-7.2 0.1,-10.8l9.6,0c5.1,7.3 10.2,14.6 15.3,21.7c4.7,0.5 14.7,0.3 16.7,-0.3c-5.5,-1.3 -9.5,-3.4 -12,-6.9zm-18.7,-18.2c-3.5,0.3 -7.1,0.1 -10.6,0.1c-0.5,-2.2 -0.6,-18.9 -0.1,-23.2c3.9,0.2 7.6,0.1 11.3,0.8c4.7,0.9 7.3,4.2 8,8.9c0.4,2.4 0.2,4.7 -0.5,7c-1.3,3.9 -4.2,6 -8.1,6.4zm126.6,15.5c-0.9,-1 -2.6,-2.9 -2.6,-2.9c-1.3,0.1 -2.6,-0.2 -3.2,-0.9c-0.8,-0.8 -2.6,-0.6 -3.6,-1.4c1,-0.6 2,-1.3 3,-2c0,0 -2.5,-2.9 -3.8,-4.3c-2,-2.2 -3.9,-4.5 -5.9,-6.8c5.7,-5.4 11.2,-10.7 16.9,-15.8c3.6,-3.2 7.8,-5.5 12.6,-6.7c1,-0.3 2.1,-0.5 3.1,-0.8c0,-0.1 0,-0.2 -0.1,-0.3l-17.1,0c-3.9,3.6 -7.8,7.3 -11.7,10.9c-3.9,3.6 -7.7,7.3 -12.2,11.2l0,-22l-18,0c0.8,0.3 1.3,0.5 1.8,0.6c4.9,1.5 6.4,5 6.3,9c-0.1,5.5 0.4,10.9 0.4,16.4c0.1,5.8 0.1,11.7 0,17.5c0,3.5 -1.8,6 -5.2,7.2c-0.6,0.2 -1.2,0.4 -2.2,0.7c4.2,0.6 14.8,0.4 16.9,-0.2l0,-26c8.1,9.1 15.9,17.8 23.5,26.3c4.4,0.4 14.7,0.3 16.9,-0.2c-1.4,-0.5 -2.9,-0.8 -4.3,-1.4c-4.5,-1.6 -8.3,-4.5 -11.5,-8.1zm-43.2,-19c-0.8,-5.8 -3.5,-10.7 -8.6,-13.9c-3.6,-2.2 -7.5,-3.4 -11.6,-3.8c-1.9,-0.2 -3.9,-0.6 -6.2,0.3c8.7,1.3 13.1,6.6 14.9,14.3c0.7,3.1 0.9,6.2 0.7,9.4c-0.2,4.3 -1.2,8.3 -3.4,12c-4.9,8 -11.2,9.2 -18.4,8c-6.6,-1.1 -10.1,-5.9 -11.5,-12.2c-1.1,-4.8 -1.4,-9.6 -0.7,-14.5c1.4,-9.6 6.3,-16.2 15.4,-19.6c3.4,-1.3 7,-1.9 10.6,-2c-6.9,-1.6 -13.6,-0.6 -20.1,1.5c-3.2,1 -6.1,2.7 -8.6,5.1c-6.8,6.6 -9.7,14.4 -8.4,23.9c1.3,9.8 6.4,16.3 15.7,19.3c8.9,2.9 18,2.6 26.7,-0.9c7.1,-2.8 11.5,-8 13.2,-15.5c0.8,-3.8 0.8,-7.6 0.3,-11.4zm110.4,25.5c-1.2,0.1 -2.5,0.3 -3.7,0.3c-7.2,0 -14.4,0 -21.6,0l-2.9,0l0,-22.6c3,0 5.8,0 8.7,0c3.2,-0.1 6.2,0.1 8.4,3.2l0,-10.1c-1.3,2.4 -3,3.4 -5,3.4c-4,0.2 -8,0.1 -12.1,0.1l0,-19.2l3,0c7.7,0 15.4,0 23.1,0c4.1,0 7.7,0.9 10.2,5.3c0.1,-3.2 0.4,-5.9 -0.2,-8.6l-53.8,0c0.3,0.4 0.7,0.4 1,0.5c5,1.5 6.9,4.5 6.7,9.3c-0.1,1.7 -0.1,3.4 0,5.1c0,0.1 2.4,0.3 2.4,0.3s-2.4,0.3 -2.4,0.4c0,1.5 0.1,3 0.1,4.5c0.1,7.8 0.4,15.5 0.4,23.3c0,3.5 -1.8,6 -5.1,7.2c-0.6,0.2 -1.3,0.4 -1.9,0.7c0,0.1 0,0.2 0.1,0.2l52.7,0l0,-7.6c-2.2,2.7 -4.8,4.1 -8.1,4.3z" fill="#FFFFFF" id="svg_3"/>
  <text transform="matrix(1.24824 0 0 0.816638 209.708 10.3989)" stroke="null" font-style="normal" font-weight="bold" fill="#ffffff" x="0.95359" y="173.0764" id="svg_4" font-size="80" font-family="'Brygada 1918'" text-anchor="start" xml:space="preserve">PEDIA</text>
 </g>

</svg>